<svg width="33" height="32" viewBox="0 0 33 32" fill="none" xmlns="http://www.w3.org/2000/svg">
<path d="M16.7413 12C18.9505 12 20.7413 10.2091 20.7413 8C20.7413 5.79086 18.9505 4 16.7413 4C14.5322 4 12.7413 5.79086 12.7413 8C12.7413 10.2091 14.5322 12 16.7413 12Z" stroke="#1D4ED8" stroke-width="1.99462" stroke-linecap="round" stroke-linejoin="round"/>
<path d="M8.74127 26C10.9504 26 12.7413 24.2091 12.7413 22C12.7413 19.7909 10.9504 18 8.74127 18C6.53213 18 4.74127 19.7909 4.74127 22C4.74127 24.2091 6.53213 26 8.74127 26Z" stroke="#1D4ED8" stroke-width="1.99462" stroke-linecap="round" stroke-linejoin="round"/>
<path d="M24.7413 26C26.9504 26 28.7413 24.2091 28.7413 22C28.7413 19.7909 26.9504 18 24.7413 18C22.5321 18 20.7413 19.7909 20.7413 22C20.7413 24.2091 22.5321 26 24.7413 26Z" stroke="#1D4ED8" stroke-width="1.99462" stroke-linecap="round" stroke-linejoin="round"/>
<path d="M12.7413 9.7998L9.24127 18.1998" stroke="#1D4ED8" stroke-width="1.99462" stroke-linecap="round" stroke-linejoin="round"/>
<path d="M20.7413 9.7998L24.2413 18.1998" stroke="#1D4ED8" stroke-width="1.99462" stroke-linecap="round" stroke-linejoin="round"/>
<path d="M12.7413 22H20.7413" stroke="#1D4ED8" stroke-width="1.99462" stroke-linecap="round" stroke-linejoin="round"/>
</svg>

