<svg width="33" height="32" viewBox="0 0 33 32" fill="none" xmlns="http://www.w3.org/2000/svg">
<path d="M16.7413 29.3191C24.0853 29.3191 30.0388 23.3656 30.0388 16.0216C30.0388 8.67762 24.0853 2.72412 16.7413 2.72412C9.39731 2.72412 3.44382 8.67762 3.44382 16.0216C3.44382 23.3656 9.39731 29.3191 16.7413 29.3191Z" stroke="#1D4ED8" stroke-width="1.99462" stroke-linecap="round" stroke-linejoin="round"/>
<path d="M11.4223 4.05396H12.752C10.159 11.8197 10.159 20.2237 12.752 27.9894H11.4223" stroke="#1D4ED8" stroke-width="1.99462" stroke-linecap="round" stroke-linejoin="round"/>
<path d="M20.7306 4.05396C23.3236 11.8197 23.3236 20.2237 20.7306 27.9894" stroke="#1D4ED8" stroke-width="1.99462" stroke-linecap="round" stroke-linejoin="round"/>
<path d="M4.77359 21.3407V20.011C12.5393 22.604 20.9433 22.604 28.7091 20.011V21.3407" stroke="#1D4ED8" stroke-width="1.99462" stroke-linecap="round" stroke-linejoin="round"/>
<path d="M4.77359 12.0326C12.5393 9.43964 20.9433 9.43964 28.7091 12.0326" stroke="#1D4ED8" stroke-width="1.99462" stroke-linecap="round" stroke-linejoin="round"/>
</svg>

