<svg width="33" height="32" viewBox="0 0 33 32" fill="none" xmlns="http://www.w3.org/2000/svg">
<path d="M24.2413 21.9999L24.7599 26.2018C24.893 27.3056 23.7094 28.0767 22.7653 27.505L17.1936 24.1939C16.5819 24.1939 15.9836 24.1541 15.3985 24.0743C16.3825 22.9174 16.9676 21.4547 16.9676 19.8722C16.9676 16.0958 13.6964 13.0374 9.65391 13.0374C8.11143 13.0374 6.6886 13.4762 5.50513 14.2474C5.46523 13.9149 5.45193 13.5824 5.45193 13.2367C5.45193 7.18637 10.7044 2.2796 17.1936 2.2796C23.6828 2.2796 28.9353 7.18637 28.9353 13.2367C28.9353 16.827 27.0871 20.0052 24.2413 21.9999Z" stroke="#1D4ED8" stroke-width="1.99462" stroke-linecap="round" stroke-linejoin="round"/>
<path d="M12.7413 12C13.7413 13.3333 15.2413 14 16.7413 12" stroke="#1D4ED8" stroke-width="1.99462" stroke-linecap="round" stroke-linejoin="round"/>
<path d="M20.2413 12H20.2513" stroke="#1D4ED8" stroke-width="2.5" stroke-linecap="round"/>
<path d="M13.2413 19C13.2413 20.6569 14.5844 22 16.2413 22C17.8981 22 19.2413 20.6569 19.2413 19C19.2413 17.3431 17.8981 16 16.2413 16C14.5844 16 13.2413 17.3431 13.2413 19Z" stroke="#1D4ED8" stroke-width="1.99462" stroke-linecap="round" stroke-linejoin="round"/>
</svg>

