<svg width="33" height="32" viewBox="0 0 33 32" fill="none" xmlns="http://www.w3.org/2000/svg">
<path d="M26.7413 9.49988H6.74127C5.35902 9.49988 4.24127 10.6176 4.24127 11.9999V23C4.24127 24.3822 5.35902 25.4999 6.74127 25.4999H26.7413C28.1235 25.4999 29.2413 24.3822 29.2413 23V11.9999C29.2413 10.6176 28.1235 9.49988 26.7413 9.49988Z" stroke="#1D4ED8" stroke-width="1.99462" stroke-linecap="round" stroke-linejoin="round"/>
<path d="M12.2413 9.49982V7.49982C12.2413 6.11757 13.359 4.99982 14.7413 4.99982H18.7413C20.1236 4.99982 21.2413 6.11757 21.2413 7.49982V9.49982" stroke="#1D4ED8" stroke-width="1.99462" stroke-linecap="round" stroke-linejoin="round"/>
<path d="M4.24127 16H29.2413" stroke="#1D4ED8" stroke-width="1.99462" stroke-linecap="round" stroke-linejoin="round"/>
<path d="M14.7413 16V19C14.7413 19.9665 15.5283 20.7535 16.4948 20.7535H16.9877C17.9542 20.7535 18.7413 19.9665 18.7413 19V16" stroke="#1D4ED8" stroke-width="1.99462" stroke-linecap="round" stroke-linejoin="round"/>
</svg>

