<svg width="33" height="32" viewBox="0 0 33 32" fill="none" xmlns="http://www.w3.org/2000/svg">
<path d="M9.24127 5.99994C9.24127 4.61769 10.359 3.49994 11.7413 3.49994H23.2413C24.6235 3.49994 25.7413 4.61769 25.7413 5.99994V26.9999C25.7413 28.3822 24.6235 29.4999 23.2413 29.4999H11.7413C10.359 29.4999 9.24127 28.3822 9.24127 26.9999V5.99994Z" stroke="#1D4ED8" stroke-width="1.99462" stroke-linecap="round" stroke-linejoin="round"/>
<path d="M9.24127 8.49994H25.7413" stroke="#1D4ED8" stroke-width="1.99462" stroke-linecap="round" stroke-linejoin="round"/>
<path d="M14.2413 13.4999H21.2413" stroke="#1D4ED8" stroke-width="1.99462" stroke-linecap="round" stroke-linejoin="round"/>
<path d="M14.2413 17.4999H21.2413" stroke="#1D4ED8" stroke-width="1.99462" stroke-linecap="round" stroke-linejoin="round"/>
<path d="M14.2413 21.4999H19.2413" stroke="#1D4ED8" stroke-width="1.99462" stroke-linecap="round" stroke-linejoin="round"/>
<path d="M12.2413 13.9999L12.7413 14.4999L13.7413 12.9999" stroke="#1D4ED8" stroke-width="1.99462" stroke-linecap="round" stroke-linejoin="round"/>
<path d="M12.2413 17.9999L12.7413 18.4999L13.7413 16.9999" stroke="#1D4ED8" stroke-width="1.99462" stroke-linecap="round" stroke-linejoin="round"/>
<path d="M12.2413 21.9999L12.7413 22.4999L13.7413 20.9999" stroke="#1D4ED8" stroke-width="1.99462" stroke-linecap="round" stroke-linejoin="round"/>
</svg>

