<svg width="33" height="32" viewBox="0 0 33 32" fill="none" xmlns="http://www.w3.org/2000/svg">
<path d="M24.5196 22.4226L25.0382 26.6246C25.1712 27.7283 23.9876 28.4995 23.0435 27.9277L17.4718 24.6166C16.8601 24.6166 16.2618 24.5768 15.6768 24.497C16.6608 23.3401 17.2459 21.8774 17.2459 20.2949C17.2459 16.5185 13.9747 13.4601 9.93221 13.4601C8.38973 13.4601 6.9669 13.8989 5.78344 14.6701C5.74354 14.3377 5.73024 14.0052 5.73024 13.6595C5.73024 7.60915 10.9827 2.70239 17.4718 2.70239C23.961 2.70239 29.2135 7.60915 29.2135 13.6595C29.2135 17.2498 27.3653 20.428 24.5196 22.4226Z" stroke="#1D4ED8" stroke-width="1.99462" stroke-linecap="round" stroke-linejoin="round"/>
<path d="M17.2459 20.2951C17.2459 21.8775 16.6608 23.3402 15.6768 24.4971C14.3603 26.0928 12.2726 27.1167 9.93227 27.1167L6.46161 29.1778C5.87652 29.5368 5.13185 29.0448 5.21164 28.3666L5.54408 25.7471C3.76221 24.5104 2.61863 22.529 2.61863 20.2951C2.61863 17.9547 3.8686 15.8936 5.78344 14.6702C6.96692 13.899 8.38973 13.4602 9.93227 13.4602C13.9747 13.4602 17.2459 16.5186 17.2459 20.2951Z" stroke="#1D4ED8" stroke-width="1.99462" stroke-linecap="round" stroke-linejoin="round"/>
</svg>

