<svg width="34" height="34" viewBox="0 0 34 34" fill="none" xmlns="http://www.w3.org/2000/svg">
<path d="M27.2227 12.7995C26.681 12.7995 26.2504 13.2301 26.2504 13.7718V15.9662C26.2504 20.8829 22.2504 24.8829 17.3338 24.8829C12.4171 24.8829 8.4171 20.8829 8.4171 15.9662V13.7579C8.4171 13.2162 7.98655 12.7856 7.44488 12.7856C6.90321 12.7856 6.47266 13.2162 6.47266 13.7579V15.9523C6.47266 21.6051 10.8199 26.2579 16.3615 26.7579V29.7162C16.3615 30.2579 16.7921 30.6884 17.3338 30.6884C17.8754 30.6884 18.306 30.2579 18.306 29.7162V26.7579C23.8338 26.2718 28.1949 21.6051 28.1949 15.9523V13.7579C28.181 13.2301 27.7504 12.7995 27.2227 12.7995Z" fill="white"/>
<path d="M17.3338 2.91064C13.9449 2.91064 11.1949 5.66064 11.1949 9.04953V16.1606C11.1949 19.5495 13.9449 22.2995 17.3338 22.2995C20.7227 22.2995 23.4727 19.5495 23.4727 16.1606V9.04953C23.4727 5.66064 20.7227 2.91064 17.3338 2.91064ZM19.1532 12.5634C19.056 12.9245 18.7366 13.1606 18.3754 13.1606C18.306 13.1606 18.2366 13.1468 18.1671 13.1329C17.6254 12.9801 17.056 12.9801 16.5143 13.1329C16.0699 13.2579 15.6393 12.994 15.5282 12.5634C15.4032 12.1329 15.6671 11.6884 16.0977 11.5773C16.9171 11.3551 17.7782 11.3551 18.5977 11.5773C19.0143 11.6884 19.2643 12.1329 19.1532 12.5634ZM19.8893 9.86898C19.7643 10.2023 19.4588 10.3968 19.1254 10.3968C19.0282 10.3968 18.9449 10.3829 18.8477 10.3551C17.8754 9.99398 16.7921 9.99398 15.8199 10.3551C15.4032 10.5079 14.931 10.2856 14.7782 9.86898C14.6254 9.45231 14.8477 8.98009 15.2643 8.8412C16.5977 8.35509 18.0699 8.35509 19.4032 8.8412C19.8199 8.99398 20.0421 9.45231 19.8893 9.86898Z" fill="white"/>
</svg>

